# xmcd
#
# Track frame offsets:
#	150
#	16351
#	33567
#	46492
#	61138
#	74902
#	87943
#	100347
#	111423
#	123169
#	139405
#	153049
#	168539
#	182428
#	197463
#	211082
#	227075
#	241940
#	257969
#	273745
#	291355
#
# Disc length: 4060 seconds
#
# Revision: 1
# Processed by: cddbd v1.5.2PL0 Copyright (c) Steve Scherf et al.
# Submitted via: audiograbber 1.83.01
#
DISCID=370fda15
DTITLE=Tracy Lawrence - The Singles CD1
DYEAR=2013
DGENRE=Country
TTITLE0=Sticks and Stones
TTITLE1=Today's Lonely Fool
TTITLE2=Runnin' Behind
TTITLE3=Somebody Paints The Wall
TTITLE4=Alibis
TTITLE5=Can't Break It To My Heart
TTITLE6=My Second Home
TTITLE7=If The Good Die Young
TTITLE8=Renegades, Rebels and Rogues
TTITLE9=I See It Now
TTITLE10=As Any Fool Can See
TTITLE11=Texas Tornado
TTITLE12=If The World Had A Front Porch
TTITLE13=If You Loved Me
TTITLE14=Time Marches On
TTITLE15=Stars Over Texas
TTITLE16=Is That A Tear
TTITLE17=Better Man, Better Off
TTITLE18=How A Cowgirl Says Goodbye
TTITLE19=The Coast Is Clear
TTITLE20=One Step Ahead Of The Storm
EXTD=
EXTT0=
EXTT1=
EXTT2=
EXTT3=
EXTT4=
EXTT5=
EXTT6=
EXTT7=
EXTT8=
EXTT9=
EXTT10=
EXTT11=
EXTT12=
EXTT13=
EXTT14=
EXTT15=
EXTT16=
EXTT17=
EXTT18=
EXTT19=
EXTT20=
PLAYORDER=
